<svg xmlns="http://www.w3.org/2000/svg" width="1785.44" height="1998.84" viewBox="0 0 1785.44 1998.84"><defs><linearGradient id="a" x1="169.38" y1="736.33" x2="166.34" y2="733.46" gradientTransform="matrix(436.15 0 0 -492.8 -72218.5 362936.01)" gradientUnits="userSpaceOnUse"><stop stop-color="#01c1d2"/><stop offset=".22" stop-color="#009eb5"/><stop offset=".58" stop-color="#007bb7"/><stop offset=".87" stop-color="#384d78"/><stop offset="1" stop-color="#483b6b"/></linearGradient></defs><path d="M208.38 238.26Q520.4 59.39 1000 59.39t791.62 178.87a84 84 0 0 1 42.07 78l-42.84 693.53a900 900 0 0 1-409.42 700l-335.67 217.32a84.24 84.24 0 0 1-91.54 0l-335.66-217.35a900 900 0 0 1-409.42-700l-42.84-693.5a84 84 0 0 1 42.08-78" transform="translate(-107.28 -.58)" fill="url(#a)"/><g fill="none" stroke="#fff"><path d="M86.44 212.19Q405.72 29.16 892.72 29.42q486.83 0 806.28 182.77a113.33 113.33 0 0 1 56.8 105.3l-42.84 693.53a929.43 929.43 0 0 1-422.79 722.82L954.5 1951.16a113.72 113.72 0 0 1-123.58 0l-335.66-217.31a929.43 929.43 0 0 1-422.78-722.83L29.64 317.49a113.33 113.33 0 0 1 56.8-105.3z" stroke-width="58.836"/><g stroke-width="42.03"><path d="M95.66 212.56L858.8 1590.73a42.09 42.09 0 0 0 73.73-.19l757.24-1384.76"/><path d="M154.55 1346.48L878.29 54.88a25.25 25.25 0 0 1 44.21.29l704.18 1297"/></g></g><g fill="#fff"><ellipse cx="1340.67" cy="831.45" rx="92.53" ry="92.38"/><ellipse cx="894.82" cy="1625.08" rx="92.53" ry="92.38"/><ellipse cx="427.94" cy="831.45" rx="92.53" ry="92.38"/></g><g fill="none" stroke="#fff" stroke-width="42.03"><path d="M894.82 1635.58v310.73" stroke-linecap="square"/><path d="M242.88 1486.99q93.39 22 657.8 159.08l654.51-172.16"/></g><path d="M892.72 503.92c-26.74 0-50.14 23.37-50.14 50.07V737.6L575.16 904.51l28.67 62.68 238.75-79.37v183.6l-66.86 50.08v50.07l117-33.38 117 33.38v-50.07l-66.86-50.08v-183.6l234.65 83.6 32.76-66.87L942.86 737.6V553.99c0-26.7-23.4-50.07-50.14-50.07" fill="#fff"/></svg>