<svg width="2000px" height="2000px" viewBox="0 0 2000 2000" xmlns="http://www.w3.org/2000/svg" xmlns:xlink="http://www.w3.org/1999/xlink"><g fill-rule="nonzero" fill="none"><path d="M1460.51 243.93c-4.143 6.684-12.885 8.804-19.63 4.76A879.14 879.14 0 0 0 994.7 127.55c-144.27 0-286.78 35.44-413.14 102.65-6.928 3.748-15.582 1.252-19.45-5.61l-48.19-86.22a14.56 14.56 0 0 1 5.78-19.91C664.93 40.92 828.81 0 994.7 0a1007.68 1007.68 0 0 1 512.86 139.72 14.55 14.55 0 0 1 4.91 20.13l-51.96 84.08z" fill="#FFF"/><path d="M1846.27 749.46a872.06 872.06 0 0 0-160-303.22c-5-6.074-4.147-15.048 1.91-20.07l59.82-49.54c6.294-5.175 15.589-4.28 20.78 2 82.84 101.89 143.45 216.79 180.38 341.95a14.55 14.55 0 0 1-10.2 18.08l-75 20.7c-7.611 2.09-15.49-2.32-17.69-9.9z" fill="#00BFEC"/><g fill="#FFF"><path d="M1634.56 1752.19l-64.08-75.28c-5.08-6.005-4.346-14.988 1.64-20.09 187.08-162.83 295.63-395.58 299.63-642.6.093-7.875 6.504-14.21 14.38-14.21h99.17a14.7 14.7 0 0 1 14.71 14.74c-4.18 284.23-129.07 552-344.63 739.07-6.202 5.292-15.517 4.562-20.82-1.63M994.7 2000c-228.31 0-450.88-77.83-628.53-219.48a14.54 14.54 0 0 1-2.05-20.63l63.21-76.07c5.038-6.044 13.99-6.934 20.12-2 154.78 123 348.52 190.6 547.25 190.6 137.51 0 268.82-30.63 390.6-91 7.03-3.562 15.618-.824 19.29 6.15l45.7 87.61a14.52 14.52 0 0 1-6.36 19.73C1305.48 1963.69 1150.5 2000 994.7 2000z"/></g><path d="M176 1535.78a14.72 14.72 0 0 1-20.4-4.25C53.74 1372.81 0 1189.35 0 1000c0-265.54 103.79-513.83 292.58-700.8 5.823-5.678 15.145-5.566 20.83.25l54.12 55.64c5.482 5.657 5.352 14.683-.29 20.18C199.23 542.08 106.88 763.37 106.88 1000a876 876 0 0 0 138.24 473.46c4.307 6.59 2.463 15.423-4.12 19.74l-65 42.58z" fill="#00BFEC"/><path d="M994.7 1651.07c-360.91 0-654.55-292.06-654.55-651.06 0-359 293.64-651.06 654.55-651.06 360.91 0 654.6 292.05 654.6 651.05 0 359-293.65 651.07-654.6 651.07zm0-1174.57c-290.2 0-526.33 234.85-526.33 523.51 0 288.66 236.13 523.53 526.33 523.53 290.2 0 526.3-234.85 526.3-523.54 0-288.69-236.08-523.5-526.3-523.5z" fill="#FFF"/></g></svg>