<svg width="2000px" height="1165px" viewBox="0 0 2000 1165" xmlns="http://www.w3.org/2000/svg" xmlns:xlink="http://www.w3.org/1999/xlink"><defs><linearGradient x1="5.13367127e-16%" y1="-35.83495%" y2="-35.83495%" id="a"><stop stop-color="#20ACFB" offset="0%"/><stop stop-color="#8F4BFF" offset="100%"/></linearGradient></defs><path d="M1538.43 646.76c-13 113-60.46 217.34-137.21 301.83a24.77 24.77 0 1 1-36.65-33.33 488.8 488.8 0 0 0 124.77-274.22c1.449-12.49 12.036-21.908 24.61-21.89.934 0 1.866.067 2.79.2 13.552 1.592 23.256 13.855 21.69 27.41zM641.15 210.53a24.68 24.68 0 0 0-35 1 538.15 538.15 0 0 0-142.4 292.71c-1.973 13.514 7.37 26.073 20.88 28.07 1.21.209 2.433.32 3.66.33 12.24-.038 22.617-9.006 24.43-21.11 14.7-100.12 59.53-192.13 129.36-266a24.71 24.71 0 0 0-.93-35zm797.05 373.5c0 241.69-196.6 438.34-438.17 438.34-241.57 0-438.23-196.66-438.23-438.34 0-241.68 196.6-438.34 438.2-438.34s438.2 196.58 438.2 438.34zm-49.48 0c0-214.41-174.32-388.84-388.68-388.84S611.22 369.61 611.22 584.03 785.61 972.87 1000 972.87s388.72-174.43 388.72-388.84zM1143.3 463.68c.03-66.773-47.167-124.246-112.67-137.204-65.504-12.958-131.027 22.217-156.424 83.972-25.396 61.755-3.575 132.849 52.094 169.722L887.39 815.6c-3.06 18.69 10 33.93 28.87 33.93h174.52c19 0 31.92-15.23 28.8-33.93l-39-235.37a139.56 139.56 0 0 0 62.72-116.55zM2000 583.87v.66a46.24 46.24 0 0 1-5.74 20.45c-12.64 22.88-317.38 560-994.19 560-676.81 0-981.62-537.13-994.25-560A46.24 46.24 0 0 1 0 584.53v-.66-1.36-1.35-.67c0-.66.07-1.32.13-2v-.06a46 46 0 0 1 3.92-15c.327-.6.643-1.233.95-1.9l.19-.37c.19-.37.38-.74.58-1.11C18.42 537.19 323.16 0 1000 0s981.55 537.2 994.19 560.08c.2.36.38.73.57 1.1l.2.39c.313.613.61 1.233.89 1.86a46 46 0 0 1 3.92 15v.1c.06.66.1 1.32.13 2v2.02c0 .45.1.86.1 1.32zm-100.9-1.34c-51.15-78.39-243.52-339.92-592.28-445.19 109.93 75.81 190.79 191.16 221.52 325.34 23.947 5.427 41.095 26.5 41.541 51.05.447 24.55-15.923 46.234-39.657 52.528-23.733 6.295-48.698-4.426-60.476-25.97-11.779-21.545-7.328-48.347 10.782-64.928-44.92-199.14-211.12-353-415.78-379.83a24.59 24.59 0 0 1-4.54-1c-19.7-1.06-39.757-1.6-60.17-1.62-20.413-.02-40.527.52-60.34 1.62a24.63 24.63 0 0 1-4.52 1 492.34 492.34 0 0 0-220.88 87 24.23 24.23 0 0 1-14.3 4.6 24.72 24.72 0 0 1-14.43-44.84c2.2-1.573 4.413-3.127 6.64-4.66C344 243.1 152 504.21 100.88 582.53c50.65 77.64 240 335.1 582.68 442.24A540.17 540.17 0 0 1 467.73 686.9c-23.078-8.514-37.361-31.684-34.6-56.127 2.763-24.443 21.856-43.841 46.252-46.99 24.396-3.15 47.79 10.763 56.669 33.703 8.879 22.94.948 48.978-19.211 63.074 39.081 197.944 195.262 351.84 393.76 388 29 2.35 58.81 3.6 89.44 3.6 30.63 0 60.48-1.25 89.52-3.6a492.14 492.14 0 0 0 204.05-88.93 24.75 24.75 0 1 1 29.53 39.72 862.916 862.916 0 0 1-8 5.81c343.51-106.88 533.22-364.9 583.96-442.63z" fill="url(#a)" fill-rule="nonzero"/></svg>