<svg width="88px" height="87px" viewBox="0 0 88 87" xmlns="http://www.w3.org/2000/svg" xmlns:xlink="http://www.w3.org/1999/xlink"><g fill-rule="nonzero" fill="none" opacity="0.8"><g fill="#B9B9B9"><path d="M30.86 13.4l23.66 23.66L34.45 0 17.67 16.93zM57.59 73.55L33.93 49.89 54 86.95l16.77-16.93zM14.15 56.84l15.17-32.16L6.1 47.91.75 53.25l16.93 16.77zM74.31 30.1L50.64 53.77 87.7 33.7 70.77 16.92z"/></g><g fill="#E2E2E2"><path d="M63.01 28.56L39.79 5.35 34.45 0l20.07 37.06zM25.44 58.38L54 86.95 33.93 49.89zM37.81 33.18l-8.49-8.5-15.17 32.16zM59.13 62.26L87.7 33.7 50.64 53.77z"/></g><g fill="#EDEDED"><path d="M7.88 7.12L.75 33.7l14.52-7.8zM80.58 79.83l7.12-26.58-14.52 7.79zM7.88 79.82l26.57 7.13-7.79-14.53zM80.58 7.12L54 0l7.79 14.52z"/></g><g fill="#E2E2E2"><path d="M17.67 16.93L34.45 0 7.88 7.12l7.39 18.78zM70.77 70.02L54 86.95l26.58-7.12-7.4-18.79zM17.68 70.02L.75 53.25l7.13 26.57 18.78-7.4zM70.77 16.92L87.7 33.7 80.58 7.12l-18.79 7.4z"/></g><g fill="#FFF"><path d="M15.27 25.9L.75 33.7l3.37 3.36zM73.18 61.04l14.52-7.79-3.37-3.36zM34.45 86.95l3.36-3.37-11.15-11.16zM54 0l-3.36 3.37 11.15 11.15z"/></g></g></svg>