<svg width="1703px" height="1964px" viewBox="0 0 1703 1964" xmlns="http://www.w3.org/2000/svg" xmlns:xlink="http://www.w3.org/1999/xlink"><g fill="none" fill-rule="evenodd"><g stroke="#FFF"><path stroke-width="19" d="M854.44 1951.26l1.9-969.05-841-479.79 841 478.84 833.46-477.89"/><path stroke-width="20" d="M12.45 1470.53l-1.9-968.1L849.7 12.21l839.15 484.55 3.79 976.64-841 478.84z"/></g><path d="M165.09 812.18l-60.58-71.42v-22.91l60.58-1.73v27.59l-36.82-.42 36.82 41.8v27.1-.01zm91.96 52.72l60.58-2v-22.89l-60.58-71.18v27.59l36.82 41.8-36.82-.46v27.14zm-74.82-105.95l53.62 30.74c3.39 1.95 6.11 7.44 6.11 12.37v12.32c0 4.93-2.71 7.31-6.11 5.37l-53.62-30.74c-3.39-1.95-6.11-7.44-6.11-12.37v-12.33c0-4.92 2.88-7.21 6.11-5.36z" fill="#FFF" fill-rule="nonzero"/><path d="M112.94 852.31l482.63 276.87c4.74 2.84 8.53 9.48 8.53 15.17v22.76c0 5.69-3.79 7.59-8.53 4.74L112.94 894.98c-4.74-2.84-8.53-9.48-8.53-15.17v-22.76c0-5.69 3.79-7.59 8.53-4.74zm0 70.17l677 387.81c4.74 2.84 8.53 9.48 8.53 15.17v22.76c0 5.69-3.79 7.59-8.53 4.74l-677-387.82c-4.74-2.84-8.53-9.48-8.53-15.17v-22.75c.01-4.74 3.81-6.64 8.53-4.74zm0 67.28l677 387.81c4.74 2.84 8.53 9.48 8.53 15.17v22.76c0 5.69-3.79 7.59-8.53 4.74l-677-387.77c-4.74-2.84-8.53-9.48-8.53-15.17v-22.76c0-4.74 3.79-7.59 8.53-4.74v-.04zm0 67.36l293 167.83c4.74 2.84 8.53 9.48 8.53 15.17v22.76c0 5.69-3.79 7.59-8.53 4.74l-293-167.86c-4.74-2.84-8.53-9.48-8.53-15.17v-22.73c.01-5.69 3.81-7.59 8.53-4.74zm0 66.37l574.6 329c4.74 2.84 8.53 9.48 8.53 15.17v22.76c0 5.69-3.79 7.59-8.53 4.74l-574.6-329c-4.74-2.84-8.53-9.48-8.53-15.17v-22.76c0-4.74 3.79-6.64 8.53-4.74zm0 67.32l105.25 59.74c4.74 2.84 8.53 9.48 8.53 15.17v22.76c0 5.69-3.79 7.59-8.53 4.74l-105.25-59.74c-4.74-2.84-8.53-9.48-8.53-15.17v-22.76c.01-4.74 3.81-7.58 8.53-4.74z" fill="#6F9DCE" fill-rule="nonzero"/><path d="M170.67 1432.9l-66.17-77.84v-25.12l66.17-2v30.05l-40.21-.64 40.21 45.71v29.8m73.98 42.45l66.17-2v-25.12l-66.17-77.84v30.05l40.21 45.47-40.21-.39v29.8" fill="#FFF" fill-rule="nonzero"/><text transform="translate(190 1262)" fill="#FFF" font-family="Arial-Black, Arial Black" font-size="173.09" font-weight="700"><tspan x="0.63" y="191.87">/</tspan></text><path d="M1145.61 1225.11l295.33-166.26c28.31-15.94 51.77-5.12 52.05 25l1.95 205.81c.28 29.66-22.31 66.85-51 83l-295.33 166.26c-28.31 15.94-51.77 5.12-52.05-25l-1.93-205.83c-.28-30.1 22.31-66.85 51-83" fill="#6F9DCE" fill-rule="nonzero"/><path d="M1278.14 1000.1l27.46-15.46c56.19-31.63 102.27-9.52 102.82 49.35l1.19 126.59c.55 58.87-44.63 132.36-100.82 164l-27.46 15.46c-56.19 31.63-102.27 9.52-102.82-49.35l-1.19-126.59c-.55-58.87 44.63-132.36 100.82-164" stroke="#6F9DCE" stroke-width="13.334" stroke-linejoin="bevel"/><path d="M720.08 373.14a277.61 277.61 0 0 1-49.91-23.75c-44.53-27.14-51.08-51.11-19.73-70.87l84.21-53.06c34-21.45 73.74-18.36 118.27 8.78a199 199 0 0 1 38.35 30l-19.71 12.42a162.86 162.86 0 0 0-36.62-30.08 123.42 123.42 0 0 0-18-8.74c-5.75-2.4-11.51-4.79-18.24-5.57-6.65-1.83-13.47-1.55-20.38-.21a60.09 60.09 0 0 0-21.07 8.26l-82.43 51.94c-20.6 13-15.07 28.57 15.69 47.32a238 238 0 0 0 49.19 22.18l-19.62 11.38zm130.1 82.62l-22.67-13.82 95-59.83c3.58-2.26 6.27-4 7.25-5.57.98-1.57 2.86-3.81 3-5.92 1.07-2.68.43-5.29-2.72-8.32a56.55 56.55 0 0 0-12-9.52c-13.77-8.39-24.46-12.69-31.2-13.46a41 41 0 0 0-23.5 6.78l-95 59.83-21.8-13.34 190.82-120.23 21.86 13.32-75.28 47.42c14.973-6.42 34.2-2.477 57.68 11.83 15.38 9.37 23.14 18.54 22.53 25.95-.61 7.41-6.32 15-19.76 23.49l-95.83 60.39 1.62 1zm131.99 80.41l-21.05-12.83 12.54-7.9c-11.47 5.22-29 1.21-50.86-12.11-16.193-9.867-24.843-18.467-25.95-25.8-1.1-7.33 7.3-16.65 24.33-27.37 14.33-9 28.32-13.83 39.37-13.76 11.05.07 25.07 5.28 42.07 15.64l35.62 21.72 20.6-13c7.17-4.52 10.11-9.38 7.86-13-1.36-4.16-7.75-9.17-19.09-16.07a323.67 323.67 0 0 0-44.07-22.41l17.92-11.29c18 8.74 33.47 17.073 46.41 25 20.24 12.333 30.507 21.92 30.8 28.76.29 6.84-7.22 15.59-24.24 26.31l-92.26 58.11zm5-30.26l35.83-22.58-34-20.72c-10.53-6.41-18-8.74-23.91-9-5.12.21-13.9 3.74-23.76 10-9 5.64-14.51 11.15-15.66 14.89-1.15 3.74 3.53 8.81 11.63 13.75l14.57 8.88c3.24 2 7.37 3.38 11.51 4.79a38.59 38.59 0 0 0 12.56 2.04c4.25.36 7.66.21 11.24-2.04l-.01-.01zm209.77-29.82l-21.82-13.33 26-16.37 21.82 13.37-26 16.33zm-154 97.09l-21.86-13.32 131.69-83 21.86 13.32-131.69 83zm140.84 85.85l-21.84-13.32 95-59.83c3.58-2.26 6.27-4 7.25-5.57.98-1.57 2.86-3.81 3-5.92 1.07-2.68.43-5.29-2.72-8.32a56.55 56.55 0 0 0-12-9.52c-13-7.89-23.65-12.19-30.39-13-6.74-.81-15.44 1.7-23.5 6.78l-95 59.83-21.86-13.32 131.69-83 21.86 13.32-16.13 10.16c14.973-6.42 34.2-2.477 57.68 11.83 15.38 9.37 23.14 18.54 22.53 25.95-.61 7.41-6.32 15-19.76 23.49l-95.86 60.4.05.04zM493.94 509.6l-102-62.17 176.48-111.2 23.48 14.31-158.58 99.91 78.54 47.86-17.92 11.29zm200.25-68.97l-21.86-13.32 26-16.37 21.86 13.32-26 16.37zM540.1 537.76l-21.86-13.36 131.69-83 21.86 13.36-131.69 83zm140.84 85.81l-21.86-13.32 95-59.83c3.58-2.26 6.27-4 7.25-5.57.98-1.57 2.86-3.81 3-5.92 1.07-2.68.43-5.29-2.72-8.32a56.55 56.55 0 0 0-12-9.52c-13-7.89-23.65-12.19-30.39-13-6.74-.81-15.44 1.7-23.5 6.78l-95 59.83-21.78-13.3 131.69-83 21.89 13.36-16.13 10.16c14.973-6.42 34.2-2.477 57.68 11.83 15.38 9.37 23.14 18.54 22.53 25.95-.61 7.41-6.32 15-19.76 23.49l-95.9 60.38zm145 88.32l-27.53-16.78 14.53-63.35-29 1.21 26.32-20.6 116-4.83 27.36 18.89-111.84 6.24-15.84 79.22zm-85-51.81l-21.9-13.32 190.82-120.23 21.86 13.32-190.78 120.23z" fill="#FFF" fill-rule="nonzero"/></g></svg>