<svg id="Layer_1" xmlns="http://www.w3.org/2000/svg" xmlns:xlink="http://www.w3.org/1999/xlink" x="0px" y="0px" viewBox="0 0 400 400"><style>.st0{fill:#e42c84}</style><path class="st0" d="M198.6 85.9c-.1-.2-.3-.5-.4-.7l-58-74.3c-.1-.1-.2-.3-.3-.4C58.8 35.7 0 111.3 0 200.7 0 310.8 89.2 400 199.3 400c6.8 0 13.5-.3 20.2-1l-.1-.1-75.8-96.9c-.6-.8-2.1-2-.8-2.8l75.2-58.3c1.2-.9.3-1.8-.4-2.7 0 0-50-63.9-50.9-64.8-.6-.5-1.1-.6-1.8-.2l-75.1 58.9c-.8.8-1.1-.2-1.3-.9-.3-1.1-.5-2.2-.8-3.3-16.9-79 42.2-142 110.9-142z"/><path class="st0" d="M215 17.6c43.3 3.4 83.5 21.8 114.6 52.8C364 104.8 383 150.6 383 199.3c0 39.6-12.5 77.3-36.2 109-11.4 15.2-25 28.6-40.5 39.6-12.5 8.9-26 16.2-40.2 21.6L233 327.2c8.6-2.2 17.1-5.2 25.1-9.1 17.3-8.4 32.8-20.7 44.9-35.7 12.3-15.2 20.8-32.5 25.4-51.5 4.9-20.1 5-41.1.4-62.4 0-.1 0-.2-.1-.2l-.9-3.6c-2.4-9.8-10.4-14.2-17.3-14.2-4.1 0-8.1 1.5-11.3 4.1l-62.5 49c-8.4-10.6-21-26.7-32-40.8l62.5-48.4c3.9-2.8 6.5-7.1 7.2-11.8.8-5.5-.8-10.7-4.9-15.4L215 17.6M200.7 0c-6.8 0-13.5.3-20.2 1l.1.1L256.4 98c.6.8 2.1 2 .8 2.8L182 159.1c-1.2.9-.3 1.8.4 2.7 0 0 50 63.9 50.9 64.8.3.3.6.4.9.4.3 0 .5-.1.8-.3l75.1-58.9c.2-.2.4-.3.5-.3.4 0 .6.7.8 1.2.3 1.1.5 2.2.8 3.3 16.9 79-42.1 142.1-110.8 142.1.1.2.3.5.4.7l58 74.3c.1.1.2.3.3.4 81-25.3 139.9-100.9 139.9-190.3C400 89.2 310.8 0 200.7 0z"/></svg>