<svg width="2000px" height="2000px" viewBox="0 0 2000 2000" xmlns="http://www.w3.org/2000/svg" xmlns:xlink="http://www.w3.org/1999/xlink"><defs><path id="a" d="M0 61.3V.7h60.61v60.6H0"/><path id="c" d="M61.3 61H.7V.39h60.6V61"/></defs><g fill="none" fill-rule="evenodd"><g fill="#FFF" fill-rule="nonzero"><path d="M1432.19 727.27H1303V598.1c0-45.84 37.16-83 83-83h46.19c45.84 0 83 37.16 83 83v46.2c-.017 45.828-37.172 82.97-83 82.97M697 727.27H567.8c-45.84 0-83-37.16-83-83V598.1a82.94 82.94 0 0 1 83-83H614c45.84 0 83 37.16 83 83v129.17zM614 1515.15h-46.19a83 83 0 0 1-83-83V1386a83 83 0 0 1 83-83H697v129.15c0 45.84-37.16 83-83 83M1432.19 1515.15H1386c-45.84 0-83-37.16-83-83V1303h129.16c45.84 0 83 37.16 83 83v46.2c0 45.84-37.16 83-83 83"/></g><g fill="#0CE" fill-rule="nonzero"><path d="M1038.25 515.15h-46.2c-45.84 0-83-37.16-83-83V386c0-45.84 37.16-83 83-83h46.19c45.84 0 83 37.16 83 83v46.2c0 45.84-37.16 83-83 83M1038.25 1727.27h-46.2c-45.84 0-83-37.16-83-83v-46.2c0-45.84 37.16-83 83-83h46.19c45.84 0 83 37.16 83 83v46.2c0 45.84-37.16 83-83 83M1644.31 1121.21h-46.19c-45.84 0-83-37.16-83-83V992c0-45.84 37.16-83 83-83h46.19c45.84 0 83 37.16 83 83v46.2c0 45.84-37.16 83-83 83M432.19 1121.21H386c-45.84 0-83-37.16-83-83V992c0-45.84 37.16-83 83-83h46.19a83 83 0 0 1 83 83v46.2c0 45.84-37.16 83-83 83"/></g><g fill="#FFF" fill-rule="nonzero"><path d="M1247 1811.07c-12.81-30.914 1.866-66.359 32.78-79.169 30.914-12.81 66.359 1.866 79.17 32.78 12.81 30.913-1.866 66.359-32.78 79.169-30.914 12.799-66.352-1.874-79.17-32.78M610.69 265.61c-12.81-30.914 1.866-66.359 32.78-79.169 30.914-12.81 66.359 1.866 79.17 32.78 12.81 30.913-1.866 66.359-32.78 79.169-30.914 12.799-66.352-1.874-79.17-32.78M1780.76 753c-30.914 12.81-66.359-1.866-79.169-32.78-12.81-30.914 1.866-66.359 32.78-79.17 30.913-12.81 66.359 1.866 79.169 32.78 12.799 30.914-1.874 66.352-32.78 79.17M265.61 1389.31c-30.914 12.81-66.359-1.866-79.169-32.78-12.81-30.914 1.866-66.359 32.78-79.17 30.913-12.81 66.359 1.866 79.169 32.78 12.799 30.914-1.874 66.352-32.78 79.17"/></g><g fill="#FFF" fill-rule="nonzero"><path d="M1734.39 1389.31c-30.914-12.808-45.592-48.251-32.785-79.166 12.807-30.914 48.25-45.593 79.165-32.787 30.914 12.806 45.595 48.248 32.79 79.163a60.58 60.58 0 0 1-79.17 32.79M219.24 753c-30.914-12.808-45.592-48.251-32.785-79.166 12.807-30.914 48.25-45.593 79.165-32.787 30.914 12.806 45.595 48.248 32.79 79.163A60.58 60.58 0 0 1 219.24 753M1359 265.61c-12.808 30.914-48.251 45.592-79.166 32.785-30.914-12.807-45.593-48.25-32.787-79.165 12.806-30.914 48.248-45.595 79.163-32.79a60.58 60.58 0 0 1 32.79 79.17M722.65 1811.07c-12.808 30.914-48.251 45.592-79.166 32.785-30.914-12.807-45.593-48.25-32.787-79.165 12.806-30.914 48.248-45.595 79.163-32.79a60.58 60.58 0 0 1 32.79 79.17"/></g><g fill="#0CE" fill-rule="nonzero"><path d="M1645.24 1718.39a30.3 30.3 0 1 1 42.85 0 30.29 30.29 0 0 1-42.85 0M281.61 354.76a30.3 30.3 0 1 1 42.85 0 30.29 30.29 0 0 1-42.85 0M1688.09 354.76a30.3 30.3 0 1 1 0-42.85 30.29 30.29 0 0 1 0 42.85M324.46 1718.39a30.3 30.3 0 1 1 0-42.85 30.29 30.29 0 0 1 0 42.85"/></g><path d="M1969.7 1030.3c-16.734 0-30.3-13.566-30.3-30.3s13.566-30.3 30.3-30.3 30.3 13.566 30.3 30.3c-.006 16.732-13.568 30.294-30.3 30.3" fill="#0CE" fill-rule="nonzero"/><g transform="translate(0 969)"><mask id="b" fill="#fff"><use xlink:href="#a"/></mask><path d="M30.3 61.3C13.566 61.3 0 47.734 0 31S13.566.7 30.3.7 60.6 14.266 60.6 31c-.006 16.732-13.568 30.294-30.3 30.3" fill="#0CE" fill-rule="nonzero" mask="url(#b)"/></g><path d="M1030.3 30.3c0 16.734-13.566 30.3-30.3 30.3s-30.3-13.566-30.3-30.3S983.266 0 1000 0c16.732.006 30.294 13.568 30.3 30.3" fill="#FFF" fill-rule="nonzero"/><g transform="translate(969 1939)"><mask id="d" fill="#fff"><use xlink:href="#c"/></mask><path d="M61.3 30.7C61.3 47.434 47.734 61 31 61S.7 47.434.7 30.7 14.266.4 31 .4c16.732.006 30.294 13.568 30.3 30.3" fill="#0CE" fill-rule="nonzero" mask="url(#d)"/></g><path d="M1202.22 899h45.24c30.68-.022 55.54-24.9 55.54-55.58V697h-146.41c-30.69 0-55.573 24.87-55.59 55.56V798c0 55.78-45.22 101-101 101s-101-45.22-101-101v-47.45c-.022-29.581-24.009-53.55-53.59-53.55H697v606h147.3c30.205-.011 54.689-24.495 54.7-54.7V1202c0-55.78 45.22-101 101-101v.2c55.78 0 101 45.22 101 101v45.67c0 30.453 24.687 55.14 55.14 55.14H1303v-146.86a55.14 55.14 0 0 0-55.14-55.14H1202c-55.78 0-101-45.22-101-101h.2c0-55.78 45.22-101 101-101" fill="#FFF" fill-rule="nonzero"/></g></svg>