<svg width="1838px" height="2000px" viewBox="0 0 1838 2000" xmlns="http://www.w3.org/2000/svg" xmlns:xlink="http://www.w3.org/1999/xlink"><path d="M924.3 0c305.51 417.76 608.2 837.84 913.7 1255.77A352014.286 352014.286 0 0 0 925.29 2000C616.47 1752.25 309 1503.18 0 1255.77A304443.505 304443.505 0 0 0 924.3 0zM381.8 1207c134.71 107.33 267.77 216.49 402.82 323.33.33-290.42 1.32-581-.5-871.58C651.56 842.64 515.19 1023.73 381.8 1207zm682.51-543.62c-.667 288.6-.667 577.307 0 866.12 130.41-109 263.47-214.67 394.38-323-131.74-180.95-263.81-361.5-394.38-543.14v.02z" fill="#FFF" fill-rule="nonzero"/></svg>