<svg width="194px" height="221px" viewBox="0 0 194 221" xmlns="http://www.w3.org/2000/svg" xmlns:xlink="http://www.w3.org/1999/xlink"><defs><linearGradient x1="-35.1637643%" y1="14.4071258%" x2="108.232668%" y2="88.2829008%" id="a"><stop stop-color="#F85F7D" offset="0%"/><stop stop-color="#F14E10" offset="100%"/></linearGradient></defs><path d="M287.002.537a4.033 4.033 0 0 1 4.009-.005l88.637 50.918c2.672 1.535 2.675 5.379.006 6.92l-77.11 44.477a17.744 17.744 0 0 0-10.49-5.949V72.714c8.36-1.425 14.728-8.663 14.728-17.404 0-9.76-7.938-17.673-17.73-17.673-9.79 0-17.726 7.913-17.726 17.673 0 8.692 6.298 15.901 14.589 17.381V96.92a17.734 17.734 0 0 0-10.34 5.916l-77.117-44.31c-2.67-1.536-2.676-5.38-.006-6.92L287.002.538zM379.9 64.68a3.982 3.982 0 0 1 2-.543c2.093 0 4.012 1.668 4.015 3.998l.085 98.873a3.988 3.988 0 0 1-2.002 3.46l-85.844 49.509c-2.67 1.541-6.012-.38-6.014-3.453l-.073-84.833c4.255-.729 8-2.943 10.64-6.12l21.443 12.295a17.577 17.577 0 0 0-.4 6.93c1.366 9.666 10.334 16.396 20.03 15.035 9.695-1.364 16.446-10.303 15.08-19.969-1.367-9.665-10.335-16.397-20.03-15.035-5.104.718-9.375 3.546-12.091 7.463l-21.007-12.046a17.557 17.557 0 0 0 1.05-5.944c0-2.369-.482-4.62-1.33-6.683L379.9 64.68zm-187.814 3.455c.002-2.332 1.92-3.998 4.014-3.998.667 0 1.354.17 2 .543l74.532 42.987a17.528 17.528 0 0 0-1.306 6.633c0 2.09.38 4.084 1.05 5.945l-21.003 12.045c-2.72-3.917-6.988-6.745-12.092-7.463-9.696-1.362-18.664 5.37-20.03 15.035-1.366 9.666 5.385 18.605 15.08 19.97 9.696 1.36 18.663-5.37 20.03-15.036.337-2.39.176-4.733-.4-6.93l21.438-12.294a17.727 17.727 0 0 0 10.534 6.101l-.073 84.85c-.002 3.074-3.343 4.995-6.013 3.454L194 170.467a3.99 3.99 0 0 1-2-3.46l.086-98.872z" transform="translate(-192)" fill="url(#a)"/></svg>