<svg width="151px" height="151px" viewBox="0 0 151 151" xmlns="http://www.w3.org/2000/svg" xmlns:xlink="http://www.w3.org/1999/xlink"><g fill="#FFF" fill-rule="evenodd"><circle cx="89" cy="62" r="11"/><circle cx="89" cy="89" r="11"/><circle cx="62" cy="89" r="11"/><circle cx="62" cy="62" r="11"/><circle cx="61.5" cy="34.5" r="8.5"/><circle cx="61.5" cy="34.5" r="8.5"/><circle cx="34.5" cy="61.5" r="8.5"/><circle cx="61.5" cy="6.5" r="6.5"/><circle cx="61.5" cy="144.5" r="6.5"/><circle cx="87.5" cy="6.5" r="6.5"/><circle cx="87.5" cy="144.5" r="6.5"/><circle cx="116.5" cy="61.5" r="8.5"/><circle cx="34.5" cy="89.5" r="8.5"/><circle cx="116.5" cy="89.5" r="8.5"/><circle cx="88.5" cy="34.5" r="8.5"/><circle cx="88.5" cy="34.5" r="8.5"/><circle cx="6.5" cy="61.5" r="6.5"/><circle cx="144.5" cy="61.5" r="6.5"/><circle cx="6.5" cy="89.5" r="6.5"/><circle cx="144.5" cy="89.5" r="6.5"/><circle cx="88.5" cy="116.5" r="8.5"/><circle cx="61.5" cy="116.5" r="8.5"/></g></svg>