<svg width="657px" height="591px" viewBox="0 0 657 591" xmlns="http://www.w3.org/2000/svg" xmlns:xlink="http://www.w3.org/1999/xlink"><g fill-rule="nonzero" fill="none"><path d="M79.1 456h-3.2v134.4H0V135.3h74.2v21h2.9c25.9-24.8 58.9-25.5 77.4-25.5 77.6 0 128.5 73.9 128.5 172.6v12.8c0 102.7-58.9 163.9-129.8 163.9-33.2.1-57.8-7.5-74.1-24.1zm133.4-133.7v-22.4c0-64.3-24.5-107.3-68.2-107.3-47.2 0-72.5 50-72.5 107.3v22.3c0 54.6 24.9 96.4 73.8 96.4 38.5-.1 66.9-30.1 66.9-96.3zM319.7 0h76v478.1h-76zM612.8 210.2c-42.6 0-84.9 33.8-84.9 76.5v191.7h-75.6V138.5h70v20.9h2.9c17-17.9 58.6-26.3 92.8-25.8 3.4 0 .6.1 3.9.1l.4 76.5h-9.5z" fill="#FFF"/><path fill="#00BFFF" d="M580.9 396.7h75.6v81.4h-75.6z"/></g></svg>