<?xml version="1.0" encoding="UTF-8"?>
<svg width="445px" height="276px" viewBox="0 0 445 276" version="1.1" xmlns="http://www.w3.org/2000/svg" xmlns:xlink="http://www.w3.org/1999/xlink">
    <!-- Generator: Sketch 48.2 (47327) - http://www.bohemiancoding.com/sketch -->
    <title>5a46fad33472ef00014b5433_a</title>
    <desc>Created with Sketch.</desc>
    <defs></defs>
    <g id="Page-1" stroke="none" stroke-width="1" fill="none" fill-rule="evenodd">
        <g id="5a46fad33472ef00014b5433_a" fill-rule="nonzero">
            <polygon id="Shape" fill="#313A62" points="445 28.3 444.1 13.3 439.7 25.8 414.9 47.5 386.5 51.9 378 43.7 402.8 9.3 428.4 1.7 400.8 2.3 360.7 31.4 323.1 28.7 360.8 54.5 379.4 67.6 322.8 27.8 270.2 1.7 270.2 1.7 239 7.9 141.7 88.9 94.9 104 75.6 123.7 41 124.1 24 155.9 0 162.8 22.7 166 43.8 137.5 76.3 144.3 75.8 174.7 59.5 218.6 50.2 259.2 40.2 275.4 65.6 269.8 62.7 253.2 84.2 208.6 125.9 191.9 142 165.2 169.2 145.3 223.1 153.3 277.6 129.4 268.3 167.1 244.1 169.3 237.2 200.4 258 186.5 292.2 171.6 319.1 129.6 320.7 109.6 335.2 124.6 377.1 150.8 400.8 139.6 399.4 83.9 392.6 62.4 423.7 54.6"></polygon>
            <g id="Group">
                <g id="Shape">
                    <polygon fill="#3F4B80" points="378.3 44.2 360 30.9 402.8 9.3"></polygon>
                    <polygon fill="#313A62" points="269.5 0.4 322.8 27.8 329.2 72"></polygon>
                    <polygon fill="#3F4B80" points="329.2 72 320.7 109.6 269.5 0.4"></polygon>
                    <polygon fill="#4B5897" points="320.7 109.6 239.1 6.6 269.6 0.6"></polygon>
                    <polygon fill="#5161A4" points="320.7 109.6 232.2 75 239.1 6.6"></polygon>
                    <polygon fill="#4B5897" points="239.1 6.6 232.2 75 141 87.8"></polygon>
                    <polygon fill="#4B5897" points="320.7 109.6 223.1 136.1 232.2 75"></polygon>
                    <polygon fill="#3F4B80" points="223.1 136.1 320.7 109.6 276.7 130.1"></polygon>
                    <polygon fill="#3F4B80" points="169.2 145.3 223.1 136.1 224 154.5"></polygon>
                    <polygon fill="#313A62" points="224 154.5 223.1 136.1 276.7 130.1"></polygon>
                    <polygon fill="#3F4B80" points="141 87.8 232.2 75 223.1 136.1"></polygon>
                    <polygon fill="#4B5897" points="141 87.8 223.1 136.1 169.2 145.3"></polygon>
                    <polygon fill="#313A62" points="141 87.8 169.2 145.3 142 165.2"></polygon>
                    <polygon fill="#5161A4" points="94.7 103.3 105.6 168.8 75.6 123.7"></polygon>
                    <polygon fill="#313A62" points="41 124.1 75.6 123.7 75.8 144.8"></polygon>
                    <polygon fill="#3F4B80" points="43.8 138.4 41 124.1 75.8 144.8"></polygon>
                    <polygon fill="#4B5897" points="43.8 138.4 24 155.9 41 124.1"></polygon>
                    <polygon fill="#313A62" points="24 155.9 22.6 166.5 0 162.8"></polygon>
                    <polygon fill="#5161A4" points="24 155.9 43.8 138.4 22.6 166.5"></polygon>
                    <polygon fill="#3F4B80" points="75.6 123.7 105.6 168.8 75.8 174.7"></polygon>
                    <polygon fill="#3F4B80" points="84.4 208.3 62.7 253.2 59.5 218.6"></polygon>
                    <polygon fill="#1F243E" points="59.5 218.6 62.7 253.2 50.2 259.2"></polygon>
                    <polygon fill="#3F4B80" points="62.7 253.2 66 270.1 40.2 275.4"></polygon>
                    <polygon fill="#313A62" points="50.2 259.2 62.7 253.2 40.2 275.4"></polygon>
                    <polygon fill="#313A62" points="75.8 174.7 105.6 168.8 59.5 218.6"></polygon>
                    <polygon fill="#4B5897" points="105.6 168.8 125.9 191.9 59.5 218.6"></polygon>
                    <polygon fill="#4B5897" points="94.7 103.3 141 87.8 105.6 168.8"></polygon>
                    <polygon fill="#3F4B80" points="105.6 168.8 141 87.8 142 165.2"></polygon>
                    <polygon fill="#313A62" points="125.9 191.9 105.6 168.8 142 165.2"></polygon>
                    <polygon fill="#4B5897" points="276.7 130.1 319.6 129.8 292.2 171.6"></polygon>
                    <polygon fill="#5161A4" points="276.7 130.1 320.7 109.6 319.6 129.8"></polygon>
                    <polygon fill="#3F4B80" points="268.3 167.1 276.7 130.1 292.2 171.6"></polygon>
                    <polygon fill="#4B5897" points="258 186.5 268.3 167.1 292.2 171.6"></polygon>
                    <polygon fill="#3F4B80" points="237.2 200.4 243.7 168.6 268.3 167.1"></polygon>
                    <polygon fill="#313A62" points="237.2 200.4 268.3 167.1 258 186.5"></polygon>
                    <polygon fill="#495692" points="360 30.9 400.8 2.3 402.8 9.3"></polygon>
                    <polygon fill="#5D6CAC" points="400.8 2.3 434.2 0.6 402.8 9.3"></polygon>
                    <polygon fill="#4F60A3" points="379.4 67.6 360.8 54.5 423.7 54.6"></polygon>
                    <polygon fill="#495692" points="360.8 54.5 414.9 47.5 423.7 54.6"></polygon>
                    <polygon fill="#3F4B80" points="414.9 47.5 439.7 25.8 423.7 54.6"></polygon>
                    <polygon fill="#4F60A3" points="423.7 54.6 439.7 25.8 445 28.3"></polygon>
                    <polygon fill="#313A62" points="439.7 25.8 444.1 13.3 445 28.3"></polygon>
                </g>
                <polygon id="Shape" fill="#313A62" points="329.2 72 335.2 124.6 320.7 109.6"></polygon>
                <polygon id="Shape" fill="#3F4B80" points="335.2 124.6 329.2 72 379.4 67.6"></polygon>
                <polygon id="Shape" fill="#4B5897" points="379.4 67.6 329.2 72 322.8 27.8"></polygon>
                <polygon id="Shape" fill="#313A62" points="378.3 44.2 386.4 51.5 360.8 54.5"></polygon>
                <polygon id="Shape" fill="#3F4B80" points="322.8 27.8 378.3 44.2 360.8 54.5"></polygon>
                <polygon id="Shape" fill="#313A62" points="322.8 27.8 360 30.9 378.3 44.2"></polygon>
                <polygon id="Shape" fill="#3F4B80" points="377.1 150.8 379.4 67.6 399.4 83.9"></polygon>
                <polygon id="Shape" fill="#495692" points="377.1 150.8 379.4 67.6 335.2 124.6"></polygon>
                <polygon id="Shape" fill="#313A62" points="399.4 83.9 393 63.1 379.4 67.6"></polygon>
                <polygon id="Shape" fill="#313A62" points="402.1 139.3 377.1 150.8 399.4 83.9"></polygon>
            </g>
        </g>
    </g>
</svg>