<svg width="445px" height="276px" viewBox="0 0 445 276" xmlns="http://www.w3.org/2000/svg" xmlns:xlink="http://www.w3.org/1999/xlink"><g fill-rule="nonzero" fill="none"><path fill="#313A62" d="M445 28.3l-.9-15-4.4 12.5-24.8 21.7-28.4 4.4-8.5-8.2 24.8-34.4 25.6-7.6-27.6.6-40.1 29.1-37.6-2.7 37.7 25.8 18.6 13.1-56.6-39.8-52.6-26.1L239 7.9l-97.3 81L94.9 104l-19.3 19.7-34.6.4-17 31.8-24 6.9 22.7 3.2 21.1-28.5 32.5 6.8-.5 30.4-16.3 43.9-9.3 40.6-10 16.2 25.4-5.6-2.9-16.6 21.5-44.6 41.7-16.7 16.1-26.7 27.2-19.9 53.9 8 54.5-23.9-9.3 37.7-24.2 2.2-6.9 31.1 20.8-13.9 34.2-14.9 26.9-42 1.6-20 14.5 15 41.9 26.2 23.7-11.2-1.4-55.7-6.8-21.5 31.1-7.8z"/><path fill="#3F4B80" d="M378.3 44.2L360 30.9l42.8-21.6z"/><path fill="#313A62" d="M269.5.4l53.3 27.4 6.4 44.2z"/><path fill="#3F4B80" d="M329.2 72l-8.5 37.6L269.5.4z"/><path fill="#4B5897" d="M320.7 109.6l-81.6-103 30.5-6z"/><path fill="#5161A4" d="M320.7 109.6L232.2 75l6.9-68.4z"/><path fill="#4B5897" d="M239.1 6.6L232.2 75 141 87.8zM320.7 109.6l-97.6 26.5 9.1-61.1z"/><path fill="#3F4B80" d="M223.1 136.1l97.6-26.5-44 20.5zM169.2 145.3l53.9-9.2.9 18.4z"/><path fill="#313A62" d="M224 154.5l-.9-18.4 53.6-6z"/><path fill="#3F4B80" d="M141 87.8L232.2 75l-9.1 61.1z"/><path fill="#4B5897" d="M141 87.8l82.1 48.3-53.9 9.2z"/><path fill="#313A62" d="M141 87.8l28.2 57.5-27.2 19.9z"/><path fill="#5161A4" d="M94.7 103.3l10.9 65.5-30-45.1z"/><path fill="#313A62" d="M41 124.1l34.6-.4.2 21.1z"/><path fill="#3F4B80" d="M43.8 138.4L41 124.1l34.8 20.7z"/><path fill="#4B5897" d="M43.8 138.4L24 155.9l17-31.8z"/><path fill="#313A62" d="M24 155.9l-1.4 10.6L0 162.8z"/><path fill="#5161A4" d="M24 155.9l19.8-17.5-21.2 28.1z"/><path fill="#3F4B80" d="M75.6 123.7l30 45.1-29.8 5.9zM84.4 208.3l-21.7 44.9-3.2-34.6z"/><path fill="#1F243E" d="M59.5 218.6l3.2 34.6-12.5 6z"/><path fill="#3F4B80" d="M62.7 253.2l3.3 16.9-25.8 5.3z"/><path fill="#313A62" d="M50.2 259.2l12.5-6-22.5 22.2zM75.8 174.7l29.8-5.9-46.1 49.8z"/><path fill="#4B5897" d="M105.6 168.8l20.3 23.1-66.4 26.7zM94.7 103.3L141 87.8l-35.4 81z"/><path fill="#3F4B80" d="M105.6 168.8l35.4-81 1 77.4z"/><path fill="#313A62" d="M125.9 191.9l-20.3-23.1 36.4-3.6z"/><path fill="#4B5897" d="M276.7 130.1l42.9-.3-27.4 41.8z"/><path fill="#5161A4" d="M276.7 130.1l44-20.5-1.1 20.2z"/><path fill="#3F4B80" d="M268.3 167.1l8.4-37 15.5 41.5z"/><path fill="#4B5897" d="M258 186.5l10.3-19.4 23.9 4.5z"/><path fill="#3F4B80" d="M237.2 200.4l6.5-31.8 24.6-1.5z"/><path fill="#313A62" d="M237.2 200.4l31.1-33.3-10.3 19.4z"/><path fill="#495692" d="M360 30.9l40.8-28.6 2 7z"/><path fill="#5D6CAC" d="M400.8 2.3L434.2.6l-31.4 8.7z"/><path fill="#4F60A3" d="M379.4 67.6l-18.6-13.1 62.9.1z"/><path fill="#495692" d="M360.8 54.5l54.1-7 8.8 7.1z"/><path fill="#3F4B80" d="M414.9 47.5l24.8-21.7-16 28.8z"/><path fill="#4F60A3" d="M423.7 54.6l16-28.8 5.3 2.5z"/><path fill="#313A62" d="M439.7 25.8l4.4-12.5.9 15zM329.2 72l6 52.6-14.5-15z"/><path fill="#3F4B80" d="M335.2 124.6l-6-52.6 50.2-4.4z"/><path fill="#4B5897" d="M379.4 67.6L329.2 72l-6.4-44.2z"/><path fill="#313A62" d="M378.3 44.2l8.1 7.3-25.6 3z"/><path fill="#3F4B80" d="M322.8 27.8l55.5 16.4-17.5 10.3z"/><path fill="#313A62" d="M322.8 27.8l37.2 3.1 18.3 13.3z"/><path fill="#3F4B80" d="M377.1 150.8l2.3-83.2 20 16.3z"/><path fill="#495692" d="M377.1 150.8l2.3-83.2-44.2 57z"/><path fill="#313A62" d="M399.4 83.9L393 63.1l-13.6 4.5zM402.1 139.3l-25 11.5 22.3-66.9z"/></g></svg>