<svg width="910px" height="910px" viewBox="0 0 910 910" xmlns="http://www.w3.org/2000/svg" xmlns:xlink="http://www.w3.org/1999/xlink"><g fill="none" fill-rule="evenodd"><circle fill="#FFF" cx="455" cy="455" r="455"/><path d="M536.615 672.484L373.248 777.006V379.099c.142-.06.285-.117.428-.176l162.94 293.56M279.125 147.045h2.613c84.398 0 168.797.009 253.195-.045 2.288-.001 3.96.625 5.64 2.182 36.186 33.51 65.87 72.145 90.38 114.82 22.786 39.673 39.509 81.75 49.43 126.464 7.233 32.596 10.53 65.582 9.737 98.97-.046 1.913-.006 3.829-.006 5.926H558.939c.203-4.124.558-8.14.572-12.158.129-34.026-6.828-66.698-19.053-98.327-15.944-41.256-39.937-77.401-69.963-109.675-32.963-35.431-71.27-64.053-112.92-88.391-24.494-14.314-49.9-26.816-75.93-38.067-.885-.382-1.764-.78-2.645-1.17l.125-.53z" fill="#000"/></g></svg>