<svg width="544px" height="544px" viewBox="0 0 544 544" xmlns="http://www.w3.org/2000/svg" xmlns:xlink="http://www.w3.org/1999/xlink"><g fill-rule="nonzero" fill="none"><circle fill="#F37121" cx="272" cy="272" r="272"/><path d="M541.806 285.027c-1.775-2.288-.98-5.122-1.258-7.608-1.309-11.737-3.782-23.213-6.693-34.62-.256-1.001-.37-2.108-1.216-2.882-.037-.426-.008-.87-.12-1.276-3.69-13.211-8.83-25.883-14.838-38.172a226.472 226.472 0 0 0-30.133-46.334c-1.698-2.021-2.712-4.996-5.8-5.687v.007l-.65-.637c.378-2.623-2.975-2.9-3.223-5.128.137-1.254-.485-2.274-1.006-3.333-2.74-5.576-5.876-10.926-9.074-16.25-8.5-14.15-18.224-27.42-29.44-39.49-11.734-12.624-24.34-24.348-38.516-34.3-2.45-1.721-5.542-2.855-6.993-5.84 8.123 3.144 15.474 7.75 22.86 12.252 15.64 9.532 30.114 20.569 43.545 33.079 18.126 16.883 33.335 36.035 46.038 57.212 10.212 17.025 18.436 34.994 24.413 53.945 4.625 14.662 8.197 29.56 10.07 44.856.921 7.517 1.99 15.003 1.914 22.599-.005.483.337.97.518 1.456.38 5.396.327 10.782-.398 16.15M241.477 534.298c5.571 2.535 11.626 3.251 17.527 4.42 8.117 1.606 16.28 3.101 24.599 3.303.812.02 1.495.155 1.691 1.09-4.921.084-9.831.713-14.762.316-.885-1.164-2.16-.712-3.285-.745-20.578-.6-40.669-4.113-60.46-9.699-17.171-4.848-33.556-11.574-49.352-19.798-15.312-7.972-29.551-17.552-43.067-28.294-10.521-8.362-20.118-17.7-29.189-27.515-13.451-14.552-25.038-30.559-34.619-47.956-2.221-4.033-4.305-8.143-6.445-12.22-.548-1.043-1.158-2.072-1.037-3.325.266.176.612.295.785.537 6.999 9.826 14.321 19.362 22.438 28.338 9.142 10.111 19.089 19.29 29.676 27.8 10.252 8.24 21.112 15.654 32.661 21.952 4.65 2.536 8.964 5.868 14.302 7.042l3.841 3.217c2.559 2.235 5.079 4.517 7.683 6.7 12.83 10.747 26.814 19.772 41.601 27.556 9.477 4.99 19.391 9.028 29.452 12.658 5.203 1.877 10.394 3.936 15.96 4.623" fill="#F5851F"/><path d="M142.94 479.544c-5.338-1.174-9.652-4.506-14.302-7.042-11.55-6.298-22.408-13.713-32.661-21.953C85.39 442.04 75.443 432.861 66.3 422.75c-8.117-8.977-15.44-18.512-22.438-28.338-.173-.242-.52-.36-.785-.537-12.372-21.708-18.443-45.542-22.942-69.794-1.585-8.54-2.43-17.275-2.98-26.03a306.474 306.474 0 0 1-.316-31.796c.534-12.97 2.26-25.874 4.974-38.62 3.278-15.396 7.687-30.43 13.54-45.049 8.12-20.276 18.69-39.194 31.495-56.865 5.642-7.787 11.79-15.167 18.286-22.273 5.276-5.773 10.785-11.266 16.523-16.588C113.382 75.99 126 66.322 139.486 57.806c19.007-12.004 39.263-21.414 60.722-28.138 13.857-4.343 28.022-7.247 42.382-9.549 17.137-2.747 34.327-2.668 51.525-2.299 11.063.238 22.04 2.043 32.96 4 19.017 3.406 37.357 9.017 55.132 16.518 3.624 1.53 7.096 3.416 10.639 5.14 1.45 2.983 4.543 4.117 6.993 5.838 14.175 9.952 26.783 21.676 38.516 34.301 11.216 12.07 20.94 25.34 29.44 39.49 3.199 5.324 6.334 10.674 9.075 16.25.52 1.058 1.142 2.08 1.006 3.332-7.864-7.23-15.382-14.819-23.707-21.567a242.116 242.116 0 0 0-39.805-26.264c-18.368-9.666-37.764-16.583-58.028-21.119-16.302-3.65-32.84-5.189-49.484-5.752-4.906-.166-9.83.256-14.738.441-8.994.341-17.876 1.495-26.695 2.926-14.344 2.327-28.358 6.08-42.055 11.058-17.698 6.435-34.474 14.732-50.036 25.243-18.131 12.245-34.592 26.448-48.791 43.266-10.671 12.64-20.242 25.982-28.13 40.477-12.043 22.134-20.644 45.536-25.117 70.417-3.22 17.911-5.038 35.85-3.85 54.103.597 9.167 1.33 18.278 2.669 27.362 1.936 13.141 5.277 25.932 9.503 38.488a227.277 227.277 0 0 0 18.744 41.464c8.919 15.407 19.18 29.806 31.363 42.833 4.304 4.602 8.497 9.295 13.22 13.48" fill="#F99A2D"/><path d="M241.477 534.298c-5.566-.687-10.757-2.746-15.96-4.623-10.061-3.63-19.975-7.669-29.452-12.658-14.787-7.784-28.771-16.809-41.601-27.556-2.604-2.183-5.124-4.465-7.683-6.7 1.444-.066 2.749.49 3.998 1.062 15.912 7.295 32.534 12.385 49.617 16.057 14.094 3.03 28.377 4.75 42.75 5.35 14.748.613 29.436-.342 44.104-2.37 14.22-1.967 28.108-5.176 41.738-9.492 19.051-6.032 37.14-14.262 54.175-24.766 15.788-9.735 30.486-20.869 43.805-33.8 7.376-7.163 14.288-14.735 20.812-22.69 10.614-12.943 19.777-26.833 27.582-41.615 10.641-20.155 18.288-41.407 23.163-63.68 3.546-16.199 5.325-32.592 5.726-49.136.318-13.04-.707-26.01-2.47-38.946-2.039-14.95-5.457-29.546-10.028-43.916-2.858-8.982-6.728-17.56-10.005-26.37 3.088.69 4.102 3.665 5.8 5.686a226.403 226.403 0 0 1 30.133 46.334c6.008 12.29 11.148 24.96 14.838 38.172.112.405.083.85.12 1.276-1.577 2.586-.014 5.217.161 7.74.473 6.814 1.162 13.608 1.126 20.455-.047 8.887.218 17.786-.674 26.645-1.881 18.711-5.135 37.151-10.775 55.142-4.524 14.43-9.943 28.503-16.906 41.917-8.491 16.355-18.342 31.844-30.102 46.114-6.81 8.264-13.604 16.544-21.442 23.827-15.615 14.51-32.383 27.483-50.914 38.192-15.371 8.882-31.44 16.146-48.161 21.898-13.121 4.514-26.606 7.806-40.367 9.911-11.721 1.793-23.47 2.78-35.324 3.352-11.903.574-23.643-.262-35.423-1.4-.843-.08-1.735-.25-2.361.588" fill="#F26822"/><path d="M211.726 237.352h.127c0 9.87-.004 19.74.001 29.61.003 4.514 1.185 5.72 5.676 5.723 18.026.007 36.053.089 54.079-.017 30.322-.178 56.315-24.406 58.667-54.544 3.149-40.377-33.69-71.95-73.113-62.657-26.613 6.271-45.379 29.848-45.435 57.098-.017 8.263-.002 16.525-.002 24.787m-50.133 185.502c.047-1.39.135-2.781.135-4.172.009-68.584.005-137.168.011-205.753.005-53 38.782-98.797 91.022-107.51 59.142-9.862 115.54 29.308 125.656 88.313 6.807 39.698-5.224 73.667-34.886 101.174-.939.87-1.89 1.726-2.962 2.705 6.433 5.57 12.339 11.48 17.382 18.196 14.86 19.784 22.247 42.06 22.253 66.803.001 13.414.065 26.83.101 40.243-.036 4.181-.058 8.361-.112 12.54-.054 4.04-1.348 5.336-5.424 5.366-9.217.067-18.435.1-27.651.149-3.537-.048-7.074-.112-10.611-.137-4.827-.036-5.998-1.214-6.01-6.122-.041-18.022.118-36.048-.168-54.069-.508-31.953-26.996-57.948-59.017-58.106-17.918-.09-35.836-.02-53.753-.015-4.828.002-6.105 1.253-6.118 6.091-.024 8.798-.007 17.596-.007 26.393.001 26.716.008 53.433.001 80.149-.001 4.557-1.128 5.637-5.719 5.678-3.537.03-7.073.09-10.61.138-9.426-.048-18.852-.1-28.277-.14-4.042-.017-5.046-1.004-5.092-5.065l-.144-12.849" fill="#FEFEFE"/></g></svg>