<svg width="15px" height="32px" viewBox="0 0 15 32" xmlns="http://www.w3.org/2000/svg" xmlns:xlink="http://www.w3.org/1999/xlink"><g fill-rule="nonzero" fill="none"><path d="M8.83.7A17.83 17.83 0 0 1 11 3.3a8.55 8.55 0 0 1-.2 8.7c-.22.382-.18.86.1 1.2.343.48.999.61 1.5.3 1.9-1.6 2-5 2.1-5.7a7.61 7.61 0 0 0-.3-2.1 10.84 10.84 0 0 0-.8-1.9 6.1 6.1 0 0 0-1.2-1.6 9 9 0 0 0-3-2.1.45.45 0 0 0-.5 0 .47.47 0 0 0 .13.6zM5.88 31.36a17.83 17.83 0 0 1-2.2-2.6 8.55 8.55 0 0 1 .2-8.7.91.91 0 0 0 0-1.2 1.12 1.12 0 0 0-1.5-.3c-1.9 1.6-2 5-2.1 5.7a7.61 7.61 0 0 0 .3 2.1c.206.657.474 1.294.8 1.9a6.1 6.1 0 0 0 1.2 1.6 9 9 0 0 0 3 2.1c.1.1.3 0 .4-.1.1-.1.1-.3-.1-.5z" fill="#FFF"/><path d="M14.51 23.11a9.18 9.18 0 0 0-2.1-5.2 17.35 17.35 0 0 0-4.2-3.2A23.14 23.14 0 0 1 4.41 12a6.71 6.71 0 0 1-1.9-3.5A7.2 7.2 0 0 1 3 4.41 11 11 0 0 1 5.81.71a.44.44 0 0 0 .1-.5.38.38 0 0 0-.6-.1 9 9 0 0 0-3.9 3.4A8.46 8.46 0 0 0 0 8.91a8.87 8.87 0 0 0 .7 2.8 10 10 0 0 0 1.6 2.4 17.26 17.26 0 0 0 4.3 3.1 21.18 21.18 0 0 1 3.8 2.6 6 6 0 0 1 1.9 3.6 7.15 7.15 0 0 1-.5 4.3 10.05 10.05 0 0 1-2.9 3.6.35.35 0 0 0-.1.5.38.38 0 0 0 .6.1 12.62 12.62 0 0 0 3.8-3.5 8.75 8.75 0 0 0 1.31-5.3z" fill="#6916FF"/></g></svg>