<svg width="48px" height="48px" viewBox="0 0 48 48" xmlns="http://www.w3.org/2000/svg" xmlns:xlink="http://www.w3.org/1999/xlink"><defs><path d="M0 24C0 10.747 10.692 0 23.882 0 37.068 0 47.76 10.747 47.76 24c0 13.253-10.692 24-23.878 24C10.692 48 0 37.253 0 24z" id="a"/><linearGradient x1="0.000741099179%" y1="-0.0010490935%" x2="0.000741099179%" y2="256.406662%" id="b"><stop stop-color="#EE4037" offset="0%"/><stop stop-color="#C1041B" offset="100%"/></linearGradient><path d="M8.08.86L.336 6.699a.375.375 0 1 0 .449.603l7.523-5.668 10.866 8.19h-4.745l-7.77-5.858a.376.376 0 1 0-.45.605l7.87 5.93a.374.374 0 0 0 .224.077H20.3a.37.37 0 0 0 .353-.259.372.372 0 0 0-.13-.419L8.533.86a.374.374 0 0 0-.451 0z" id="d"/><path d="M2.19.652L.532 1.9a.381.381 0 0 0 0 .601L24.12 20.28l-5.372 4.047-1.508-1.136a.374.374 0 0 0-.524.074.379.379 0 0 0 .073.527l1.734 1.308c.068.05.146.074.225.074.079 0 .159-.025.224-.074l5.997-4.52a.374.374 0 0 0 0-.602L1.384 2.2l1.255-.947c.166-.124.2-.36.075-.526a.376.376 0 0 0-.3-.152.364.364 0 0 0-.224.077z" id="f"/><path d="M.76.271a.376.376 0 0 0-.357.257.381.381 0 0 0 .13.421l11.994 9.04a.377.377 0 0 0 .449 0l7.732-5.828a.379.379 0 0 0 .073-.529.374.374 0 0 0-.524-.075L12.75 9.216 1.884 1.026h4.748l7.68 5.79a.377.377 0 0 0 .45-.603L6.98.348a.35.35 0 0 0-.225-.077H.759z" id="h"/><path d="M6.53.86L.534 5.38a.376.376 0 0 0 0 .6l23.585 17.78-1.334 1.004a.378.378 0 0 0-.073.528.371.371 0 0 0 .522.075l1.734-1.307a.376.376 0 0 0 .15-.3c0-.12-.055-.231-.15-.302L1.384 5.679l5.37-4.047 1.65 1.242a.376.376 0 0 0 .449-.6L6.978.859a.372.372 0 0 0-.45 0z" id="j"/></defs><g fill="none" fill-rule="evenodd"><mask id="c" fill="#fff"><use xlink:href="#a"/></mask><path fill="url(#b)" mask="url(#c)" d="M0 48h47.76V0H0z"/><g><g transform="translate(16 7.111)"><mask id="e" fill="#fff"><use xlink:href="#d"/></mask><path fill="#FFFFFE" mask="url(#e)" d="M-.415 11.177h21.69V.183H-.415z"/></g><g transform="translate(11.556 15.111)"><mask id="g" fill="#fff"><use xlink:href="#f"/></mask><path fill="#FFFFFE" mask="url(#g)" d="M-.216 25.776h25.934v-25.8H-.216z"/></g><g transform="translate(11.556 30.222)"><mask id="i" fill="#fff"><use xlink:href="#h"/></mask><path fill="#FFFFFE" mask="url(#i)" d="M-.216 10.664H21.46V-.33H-.216z"/></g><g transform="translate(11.556 7.111)"><mask id="k" fill="#fff"><use xlink:href="#j"/></mask><path fill="#FFFFFE" mask="url(#k)" d="M-.216 26.042h25.934V.183H-.216z"/></g></g></g></svg>