<svg width="278px" height="117px" viewBox="0 0 278 117" xmlns="http://www.w3.org/2000/svg" xmlns:xlink="http://www.w3.org/1999/xlink"><g fill="none" fill-rule="evenodd"><path d="M212.517 46.181c6.325-.112 12.71-.01 18.277-3.734 6.926-4.634 7.687-15.069 1.163-18.33-7.322-3.662-15.64-3.373-22.961-1.615-3.938.947-2.88 8.435-4.321 12.895-.102.317-.212.634-.284.958-2.187 9.873-2.186 9.873 8.126 9.826zm-9.101 48.657c6.659.163 13.96-.157 20.786-3.33 6.234-2.9 9.788-9.273 8.7-15.316-1-5.55-4.887-8.444-12.424-9.502-6.296-.884-12.621-.483-18.93-.743-3.136-.13-4.412 1.08-5.014 4.025-1.2 5.856-2.75 11.64-4.05 17.475-1.645 7.38-1.6 7.391 6.234 7.391h4.698zm73.812-64c-1.39.506-1.356 1.966-1.473 2.923-.626 5.12-2.846 7.92-8.454 6.774-1.113-.227-2.37-.076-3.138 1.06-4.555 6.741-11.27 10.444-19.723 13.03 3.442 1.651 5.973 2.744 8.388 4.048 4.699 2.537 8.607 5.938 9.533 11.48.642 3.847 2.344 5.395 6.25 4.716 4.394-.763 5.27.744 3.93 5.135-1.28 4.202-2.143 7.677-7.643 6.534-1.415-.294-2.544.362-3.088 1.882-6.226 17.406-20.706 23.622-37.105 26.127-20.5 3.13-41.248 1.014-61.883 1.415-4.125.081-3.75-2.756-3.076-5.63 3.9-16.672 7.782-33.35 11.636-50.034 4.302-18.62 8.589-37.245 12.82-55.883.478-2.107.878-3.767 3.653-3.68 17.303.542 34.652-1.092 51.916 1.06 5.466.681 10.759 2.156 15.635 4.816 6.644 3.626 11.554 8.875 12.132 16.611.368 4.926 2.244 6.32 6.697 5.571.968-.162 1.994.02 2.993.044v2zM84.471 23.013c-4.5 0-9.015.226-13.494-.074-3.42-.228-4.963.771-5.752 4.299-6.245 27.894-12.748 55.73-19.02 83.618-.854 3.795-2.14 5.594-6.51 5.284-6.8-.481-13.66-.224-20.49-.084-3.12.062-4.418-.302-3.51-4.117C21.532 87.363 27.102 62.723 32.741 38.1A5014.173 5014.173 0 0 0 40.33 4.555C40.891 2.02 41.755.665 44.87.68c28.663.146 57.328.149 85.992.007 3.6-.018 3.744 1.407 3.106 4.143-7.483 32.048-14.935 64.104-22.396 96.159-.038.162-.1.317-.142.479-1.156 4.67-.868 11.014-3.84 13.576-3.489 3.007-9.879.727-15.004.95-2.495.109-5.02-.188-7.494.066-3.944.404-4.325-1.205-3.516-4.622 6.578-27.823 12.908-55.705 19.595-83.501 1.078-4.481-.01-5.36-4.207-5.001-4.136.353-8.326.077-12.492.077" fill="#FBB31D"/><path d="M154.977 103.193c-8.004-18.828-15.298-36.286-22.878-53.62-2.079-4.755.147-8.8 1.057-13.062 2.355-11.035 4.945-22.021 7.428-32.972 1.934-.342 1.962 1.256 2.35 2.145 6.963 15.983 13.752 32.043 20.862 47.96 1.343 3.007 1.307 5.577.591 8.594-3.142 13.237-6.11 26.515-9.41 40.955" fill="#FBB41F"/><path d="M15.971 23.01c-4.8 0-8.788-.069-12.77.026-2.264.054-2.809-.64-2.242-2.922 1.36-5.46 2.45-10.99 3.6-16.502C4.997 1.517 6.02.663 8.321.709 15.956.864 23.6.858 31.236.72c2.723-.05 3.633.813 2.872 3.45-.412 1.43-.602 2.921-.977 4.363-1.207 4.629-1.119 10.592-4.05 13.502-3.074 3.052-9.173.512-13.11.974" fill="#FBB31D"/></g></svg>