<svg width="58px" height="58px" viewBox="0 0 58 58" xmlns="http://www.w3.org/2000/svg" xmlns:xlink="http://www.w3.org/1999/xlink"><g fill="none" fill-rule="evenodd"><circle fill="#4DDABA" cx="29" cy="29" r="29"/><path d="M27.13 41.75v-7.77c0-.15.01-.31.05-.46.16-.63.72-1.06 1.36-1.04.64.02 1.16.48 1.29 1.1.02.09.02.18.03.28V49.5c0 .16-.01.3-.05.45a1.35 1.35 0 0 1-2.66-.14 2.85 2.85 0 0 1-.02-.33v-7.74.01zM24.48 32.94v7.8c0 .16-.01.3-.05.45-.16.6-.72 1.06-1.4 1.02a1.37 1.37 0 0 1-1.25-1.15c-.02-.1-.02-.19-.02-.29V25.2c0-.15 0-.3.04-.45.15-.7.8-1.14 1.5-1.06.6.08 1.16.6 1.18 1.35v7.9zM37.9 24.26v-7.78c0-.13 0-.26.02-.4.14-.63.7-1.09 1.35-1.08.64 0 1.2.47 1.31 1.12.02.08.02.17.03.26v15.68c0 .13 0 .24-.03.37-.13.63-.68 1.09-1.31 1.1-.65 0-1.21-.45-1.34-1.1l-.04-.3v-7.87h.01zM35.23 32.95v7.81c0 .15 0 .3-.05.45-.17.6-.73 1.04-1.4 1a1.36 1.36 0 0 1-1.24-1.13l-.03-.23v-15.7c0-.16.02-.31.06-.46a1.36 1.36 0 0 1 2.65.16l.01.29v7.81zM16.38 24.26v-7.8c0-.16.01-.33.07-.5.2-.61.77-1 1.39-.95.66.05 1.16.56 1.25 1.19v.13l.01.17v15.51c0 .14 0 .28-.03.42a1.37 1.37 0 0 1-1.31 1.09c-.64 0-1.2-.44-1.34-1.07-.02-.09-.03-.18-.03-.28V32l-.01-7.74zM46 19.96v3.42c0 .15-.02.3-.06.45-.15.58-.7 1.05-1.38 1.01a1.37 1.37 0 0 1-1.26-1.13 2.04 2.04 0 0 1-.03-.35v-6.84c0-.18.02-.36.08-.53a1.36 1.36 0 0 1 2.65.44v3.53zM11 19.99V16.5c0-.65.5-1.3 1.2-1.37.76-.1 1.46.48 1.51 1.26v6.95c0 .15 0 .3-.03.44a1.36 1.36 0 0 1-1.38 1.06 1.36 1.36 0 0 1-1.3-1.39v-3.46z" fill="#FFF" fill-rule="nonzero"/></g></svg>