<svg width="309px" height="436px" viewBox="0 0 309 436" xmlns="http://www.w3.org/2000/svg" xmlns:xlink="http://www.w3.org/1999/xlink"><g fill-rule="nonzero" fill="none"><path fill="#49C1BF" d="M308.1 180.2l-62.8 28L78.7 293l166.6 80.1V240.7l62.8-28.3V408l-62.8 28L0 318.6v-62.4l169.8-83.3L0 91.3V28L63.8 0l244.3 117.6z"/><path fill="#077A8F" d="M0 28l245.3 117.6 62.8-28L63.8 0z"/><path fill="#298E97" d="M245.3 145.33l62.8-28v62.6l-62.8 28"/><path fill="#49C1BF" d="M0 28.06v63.3L169.8 173 0 256.26v62.4l245.3 117.4v-62.8l-166.6-80.2 166.6-84.8v-62.6z"/><path fill="#298E97" d="M245.3 435.59l62.8-28V212l-62.8 28.3z"/></g></svg>